<svg width="107" height="109" viewBox="0 0 107 109" fill="none" xmlns="http://www.w3.org/2000/svg">
<path d="M102.881 50.2218H13.9617L56.3511 7.12057C57.1183 6.33615 57.549 5.27505 57.549 4.169C57.549 3.06296 57.1183 2.00185 56.3511 1.21744C55.5792 0.437676 54.5352 0 53.4468 0C52.3585 0 51.3145 0.437676 50.5426 1.21744L1.10895 51.4568C0.914088 51.653 0.741375 51.8707 0.594015 52.1058C0.528388 52.1719 0.466497 52.2418 0.408638 52.3151C0.408638 52.4616 0.264457 52.5872 0.202665 52.7338L0.0790805 53.1524C0.0672393 53.2707 0.0672393 53.39 0.0790805 53.5083C-0.0263602 54.0473 -0.0263602 54.6021 0.0790805 55.1411C0.0672393 55.2594 0.0672393 55.3786 0.0790805 55.4969L0.202665 55.9156C0.202665 56.0621 0.346846 56.1877 0.408638 56.3343C0.462767 56.4434 0.524727 56.5483 0.594015 56.6483C0.741375 56.8834 0.914088 57.101 1.10895 57.2972L50.5426 107.537C50.9119 107.975 51.3664 108.331 51.8775 108.582C52.3885 108.833 52.9452 108.975 53.5125 108.997C54.0799 109.019 54.6456 108.922 55.1742 108.712C55.7029 108.501 56.183 108.182 56.5844 107.774C56.9859 107.366 57.3001 106.878 57.5072 106.341C57.7143 105.803 57.8099 105.228 57.7879 104.652C57.766 104.075 57.6271 103.509 57.3798 102.99C57.1326 102.471 56.7823 102.009 56.3511 101.633L13.9617 58.595H102.881C103.973 58.595 105.021 58.1539 105.793 57.3688C106.566 56.5837 107 55.5188 107 54.4084C107 53.298 106.566 52.2332 105.793 51.448C105.021 50.6629 103.973 50.2218 102.881 50.2218Z" fill="white"/>
</svg>
