<svg width="100" height="100" viewBox="0 0 100 100" fill="none" xmlns="http://www.w3.org/2000/svg">
<path d="M84.9231 38.7059C82.4344 39.894 80.4175 42.6225 80.4175 44.8016C80.4175 46.9795 82.4344 47.7832 84.9231 46.5967C87.41 45.4088 89.4285 42.6787 89.4285 40.5008C89.4285 38.3217 87.41 37.5178 84.9231 38.7059Z" fill="white"/>
<path d="M84.9231 51.5518C82.4344 52.7398 80.4175 55.4684 80.4175 57.6475C80.4175 59.8267 82.4344 60.6305 84.9231 59.4426C87.41 58.2547 89.4285 55.5248 89.4285 53.3469C89.4285 51.1689 87.41 50.3639 84.9231 51.5518Z" fill="white"/>
<path d="M63.0255 57.8627C65.5126 56.6746 67.5312 53.9461 67.5312 51.7668C67.5312 49.5875 65.5126 48.7838 63.0255 49.9717C60.5355 51.1598 58.5199 53.8883 58.5199 56.0676C58.5199 58.2469 60.5355 59.0506 63.0255 57.8627Z" fill="white"/>
<path d="M84.9231 64.399C82.4344 65.5857 80.4175 68.3156 80.4175 70.4935C80.4175 72.6728 82.4344 73.4765 84.9231 72.2884C87.41 71.1006 89.4285 68.3718 89.4285 66.1927C89.4285 64.0148 87.41 63.2111 84.9231 64.399Z" fill="white"/>
<path d="M63.0255 75.6638C60.5355 76.8531 58.5199 79.5818 58.5199 81.7595C58.5199 83.9388 60.5353 84.7425 63.0255 83.5545C65.5126 82.3679 67.5312 79.638 67.5312 77.4587C67.5312 75.2808 65.5126 74.4771 63.0255 75.6638Z" fill="white"/>
<path d="M63.2936 62.8178C60.8052 64.0059 58.7896 66.7344 58.7896 68.9137C58.7896 71.093 60.8049 71.8967 63.2936 70.7088C65.7823 69.5207 67.8008 66.7922 67.8008 64.6129C67.8008 62.4336 65.7823 61.6297 63.2936 62.8178Z" fill="white"/>
<path d="M93.1645 20.6254L57.2412 1.75566C55.013 0.584766 52.5052 0 50 0C47.4964 0 44.987 0.584766 42.7601 1.75566L6.83551 20.6254C2.59507 22.8531 0 26.8654 0 31.1951V68.8049C0 73.1346 2.59485 77.1469 6.83551 79.3746L42.7603 98.2443C44.987 99.4139 47.4964 100 50 100C52.5052 100 55.013 99.4139 57.2412 98.2443L93.1645 79.3746C97.4036 77.1469 100 73.1344 100 68.8049V31.1951C100 26.8654 97.4036 22.8531 93.1645 20.6254ZM48.7931 96.2369C47.4513 96.0914 46.1338 95.7059 44.9314 95.075L9.00658 76.2053C6.03725 74.6449 4.22103 71.8363 4.22103 68.8049V31.1951C4.22103 30.0189 4.49805 28.8783 5.00435 27.8291L48.7934 50.8291L48.7931 96.2369ZM6.20787 25.9988C6.95974 25.127 7.90298 24.3742 9.00658 23.7945L44.9314 4.9248C46.4918 4.10527 48.2451 3.69629 50 3.69629C51.7549 3.69629 53.5069 4.10547 55.0686 4.9248L90.9932 23.7945C92.0968 24.3742 93.04 25.1268 93.7917 25.9988L50 49.0002L6.20787 25.9988ZM95.7776 68.8049C95.7776 71.8363 93.9628 74.6449 90.9934 76.2053L55.0688 95.075C53.8664 95.7059 52.5502 96.0914 51.2071 96.2369V50.8293L94.9961 27.8293C95.5022 28.8783 95.7779 30.0191 95.7779 31.1953V68.8049H95.7776Z" fill="white"/>
<path d="M54.3541 8.72616C52.1621 7.30623 48.5489 7.26932 46.2863 8.64744C44.0238 10.0242 43.9669 12.2953 46.1592 13.7154C48.3528 15.1367 51.9632 15.1734 54.2257 13.7955C56.4866 12.4172 56.5464 10.1486 54.3541 8.72616Z" fill="white"/>
<path d="M78.1789 22.6133C75.9869 21.1906 72.3752 21.1551 70.1127 22.5319C67.8517 23.9086 67.7933 26.1797 69.9855 27.5998C72.1791 29.0211 75.7893 29.0567 78.0518 27.6811C80.3143 26.3016 80.3725 24.0346 78.1789 22.6133Z" fill="white"/>
<path d="M29.841 22.1805C27.6488 20.759 24.0373 20.7236 21.7748 22.1004C19.5107 23.4785 19.4538 25.7469 21.6461 27.1684C23.8381 28.591 27.45 28.6252 29.7139 27.2484C31.9746 25.8703 32.0331 23.6019 29.841 22.1805Z" fill="white"/>
<path d="M53.667 36.065C51.4731 34.6436 47.8617 34.6082 45.6007 35.985C43.3382 37.3631 43.2798 39.6315 45.4731 41.0527C47.667 42.4754 51.2755 42.5109 53.5396 41.1328C55.8008 39.7561 55.8592 37.4877 53.667 36.065Z" fill="white"/>
<path d="M53.8707 22.4809C51.7518 21.108 48.2646 21.0727 46.0768 22.4035C43.8905 23.7344 43.8368 25.9268 45.9539 27.2996C48.0727 28.6723 51.5615 28.7078 53.7491 27.377C55.934 26.0461 55.9896 23.8537 53.8707 22.4809Z" fill="white"/>
<path d="M12.8143 48.4967C15.3029 49.6848 17.3214 48.8797 17.3214 46.7018C17.3214 44.5225 15.3029 41.7937 12.8143 40.6059C10.3274 39.418 8.31018 40.2217 8.31018 42.401C8.31018 44.5787 10.3274 47.3086 12.8143 48.4967Z" fill="white"/>
<path d="M37.9701 82.5293C40.4586 83.7172 42.4742 82.9135 42.4742 80.7342C42.4742 78.5562 40.4586 75.8264 37.9701 74.6383C35.4815 73.4515 33.4661 74.2555 33.4661 76.4334C33.4661 78.6127 35.4815 81.3414 37.9701 82.5293Z" fill="white"/>
<path d="M25.3924 65.5123C27.8808 66.7003 29.8978 65.8966 29.8978 63.7173C29.8978 61.5394 27.8808 58.8095 25.3924 57.6228C22.9037 56.4349 20.8883 57.2386 20.8883 59.4166C20.8883 61.5957 22.9037 64.3244 25.3924 65.5123Z" fill="white"/>
</svg>
