<svg width="50" height="50" viewBox="0 0 50 50" fill="none" xmlns="http://www.w3.org/2000/svg">
<path fill-rule="evenodd" clip-rule="evenodd" d="M31.4106 3.18941C35.6632 -1.06314 42.558 -1.06314 46.8106 3.18941C51.0631 7.44197 51.0631 14.3367 46.8106 18.5893L24.7518 40.6481C23.4916 41.9083 22.7495 42.6504 21.9241 43.2941C20.9516 44.0527 19.8989 44.7034 18.7852 45.2341C17.8403 45.6844 16.8449 46.0162 15.154 46.5797L7.40722 49.162L5.54192 49.7839C4.02899 50.2881 2.36097 49.8944 1.2333 48.7667C0.105627 47.639 -0.288139 45.9709 0.216185 44.4581L3.42018 34.846C3.98378 33.1551 4.31552 32.1597 4.76585 31.2148C5.29662 30.1011 5.94713 29.0486 6.70589 28.0758C7.34963 27.2504 8.09158 26.5086 9.352 25.2481L31.4106 3.18941ZM7.32675 45.5118L13.9349 43.309C15.7747 42.6958 16.5564 42.432 17.2844 42.0851C18.1694 41.6634 19.0058 41.1465 19.7788 40.5434C20.4148 40.0474 21.0002 39.4662 22.3716 38.0948L39.975 20.4916C38.1408 19.8447 35.7781 18.6456 33.5662 16.4337C31.3543 14.2218 30.1553 11.859 29.5085 10.025L11.905 27.6283C10.5337 28.9997 9.95251 29.5851 9.45649 30.2211C8.85356 30.9941 8.33663 31.8304 7.91489 32.7155C7.56791 33.4434 7.30417 34.2253 6.69089 36.0651L4.48817 42.6732L7.32675 45.5118ZM32.3381 7.19543C32.4176 7.60231 32.552 8.15543 32.7762 8.80201C33.2813 10.2577 34.2353 12.1695 36.0329 13.9671C37.8304 15.7647 39.7422 16.7187 41.1978 17.2237C41.8446 17.448 42.3976 17.5824 42.8046 17.662L44.3438 16.1226C47.2341 13.2323 47.2341 8.54631 44.3438 5.65606C41.4536 2.76581 36.7676 2.76581 33.8774 5.65606L32.3381 7.19543Z" fill="white"/>
</svg>
