<svg width="150" height="150" viewBox="0 0 150 150" fill="none" xmlns="http://www.w3.org/2000/svg">
<path fill-rule="evenodd" clip-rule="evenodd" d="M90.3294 53.0425L76.1513 24.6185L71.5444 29.6443C45.6841 57.8558 37.5 74.7556 37.5 89.0619C37.5 108.888 54.5907 124.431 75 124.431C95.4094 124.431 112.5 108.888 112.5 89.0619C112.5 83.2369 110.466 76.9525 107.738 71.0363C104.975 65.0432 101.307 59.021 97.625 53.6118L94.4156 48.8964L90.3294 53.0425ZM87.7956 68.9675L93.0112 63.6769C95.35 67.4038 97.505 71.2313 99.225 74.9613C101.728 80.3907 103.125 85.2231 103.125 89.0619C103.125 94.3382 101.396 99.3132 98.3988 103.471C98.4244 103.084 98.4375 102.693 98.4375 102.297C98.4375 98.785 97.0194 95.2581 95.395 92.265C93.7162 89.1744 91.5213 86.1238 89.3719 83.4419L86.3344 79.6519L84.2325 81.4625L76.09 67.5994L71.8144 71.5607C57.1076 85.1863 51.5625 94.0675 51.5625 102.297C51.5625 102.693 51.5756 103.084 51.6014 103.471C48.6043 99.3132 46.875 94.3382 46.875 89.0619C46.875 79.2413 52.0437 65.8175 73.8787 41.0657L87.7956 68.9675ZM81.8394 95.9L84.9675 93.2044C85.7869 94.3975 86.5294 95.585 87.1556 96.7382C88.52 99.2513 89.0625 101.119 89.0625 102.297C89.0625 106.982 83.8319 112.499 75 112.499C66.1681 112.499 60.9375 106.982 60.9375 102.297C60.9375 98.8969 62.9356 93.415 73.9587 82.4825L81.8394 95.9Z" fill="white"/>
</svg>
