<svg width="100" height="100" viewBox="0 0 100 100" fill="none" xmlns="http://www.w3.org/2000/svg">
<g clip-path="url(#clip0_65_475)">
<path d="M43.75 37.5H37.5V75H43.75V37.5Z" fill="white"/>
<path d="M62.5 37.5H56.25V75H62.5V37.5Z" fill="white"/>
<path d="M12.5 18.75V25H18.75V87.5C18.75 89.1576 19.4085 90.7473 20.5806 91.9194C21.7527 93.0915 23.3424 93.75 25 93.75H75C76.6576 93.75 78.2473 93.0915 79.4194 91.9194C80.5915 90.7473 81.25 89.1576 81.25 87.5V25H87.5V18.75H12.5ZM25 87.5V25H75V87.5H25Z" fill="white"/>
<path d="M62.5 6.25H37.5V12.5H62.5V6.25Z" fill="white"/>
</g>
<defs>
<clipPath id="clip0_65_475">
<rect width="100" height="100" fill="white"/>
</clipPath>
</defs>
</svg>
